<svg width="40" height="40" viewBox="0 0 40 40" fill="none" xmlns="http://www.w3.org/2000/svg">
<path d="M8.33373 16.4342C11.5277 23.3907 17.2111 28.9215 24.277 31.9199L25.4096 32.4245C28.001 33.5791 31.0473 32.7019 32.6278 30.3461L34.1079 28.1399C34.5892 27.4226 34.4427 26.4565 33.7704 25.9141L28.7507 21.8645C28.0134 21.2697 26.9292 21.4082 26.3651 22.1693L24.8122 24.2648C20.8276 22.2992 17.5925 19.0641 15.6269 15.0794L17.7223 13.5266C18.4834 12.9625 18.622 11.8783 18.0272 11.141L13.9774 6.12111C13.4351 5.44898 12.4693 5.30237 11.752 5.78332L9.53061 7.27281C7.16003 8.86233 6.28773 11.9337 7.46895 14.532L8.33243 16.4313L8.33373 16.4342Z" fill="#FAB001"/>
</svg>
