<svg width="541" height="519" viewBox="0 0 541 519" fill="none" xmlns="http://www.w3.org/2000/svg">
<path fill-rule="evenodd" clip-rule="evenodd" d="M55.7756 101.679C19.603 146.973 5.19969e-06 202.441 0 259.501H52.5326L53.8056 448.488L166.298 258.748L117.087 259.053C117.189 226.849 128.298 195.562 148.719 169.992C169.235 144.304 198.003 125.819 230.573 117.396C263.143 108.974 297.699 111.085 328.892 123.403C360.085 135.72 386.178 157.557 403.131 185.534C420.085 213.511 426.953 246.069 422.674 278.167C418.395 310.266 403.209 340.119 379.462 363.103C355.716 386.088 324.737 400.923 291.316 405.314C257.895 409.705 223.897 403.406 194.584 387.393L136.645 485C188.329 513.236 248.275 524.342 307.202 516.6C366.13 508.858 420.754 482.7 462.623 442.174C504.492 401.648 531.271 349.012 538.815 292.415C546.359 235.818 534.248 178.412 504.356 129.083C474.465 79.7531 428.459 41.2503 373.458 19.5324C318.458 -2.18534 257.529 -5.90737 200.101 8.94248C142.673 23.7922 91.948 56.3859 55.7756 101.679Z" fill="white"/>
</svg>
