<svg width="190" height="34" viewBox="0 0 190 34" fill="none" xmlns="http://www.w3.org/2000/svg">
<path fill-rule="evenodd" clip-rule="evenodd" d="M3.53221 7.45299C1.24144 10.3258 3.2929e-07 13.844 0 17.4631H3.32683L3.40745 29.45L10.5315 17.4153L7.41498 17.4347C7.42144 15.3921 8.125 13.4076 9.41822 11.7858C10.7174 10.1566 12.5393 8.98406 14.602 8.44987C16.6646 7.91569 18.8529 8.04958 20.8284 8.83083C22.8038 9.6121 24.4562 10.9971 25.5298 12.7716C26.6035 14.5461 27.0385 16.6112 26.7675 18.647C26.4965 20.683 25.5348 22.5765 24.0309 24.0342C22.5271 25.4921 20.5652 26.433 18.4487 26.7115C16.3322 26.99 14.1791 26.5906 12.3228 25.5749L8.65359 31.7658C11.9267 33.5567 15.723 34.2611 19.4548 33.7701C23.1866 33.279 26.6459 31.6199 29.2974 29.0495C31.9489 26.479 33.6448 23.1405 34.1225 19.5507C34.6003 15.9609 33.8334 12.3199 31.9403 9.19109C30.0474 6.06228 27.1338 3.62017 23.6507 2.24267C20.1676 0.865183 16.309 0.629106 12.6722 1.57098C9.03534 2.51286 5.82297 4.58017 3.53221 7.45299Z" fill="#FAB001"/>
<path d="M56.4331 29.2647C70.2363 29.2647 72.3303 22.8319 72.9202 18.9212C73.0382 18.1561 73.0677 17.3342 73.0677 16.6825C73.0677 12.7435 70.6197 7.38756 58.2322 7.38756H56.905C43.2198 7.38756 41.0373 13.6786 40.4475 17.5043C40.3295 18.4395 40.2999 19.1763 40.2999 19.828C40.2999 23.7954 42.7775 29.2647 55.1059 29.2647H56.4331ZM64.5439 17.4193C64.5439 17.7877 64.5144 18.1561 64.4555 18.5245C64.0721 20.8482 62.4499 23.5687 56.1677 23.5687C50.3279 23.5687 48.8826 21.075 48.8826 18.9495C48.8826 18.6095 48.8532 18.4678 48.9417 17.9294C49.1777 15.7473 50.8588 13.0552 57.2 13.0552C62.9808 13.0552 64.5439 15.294 64.5439 17.4193ZM92.6659 28.8679H101.042L104.523 7.7843H79.4526C77.6535 18.7228 76.9161 21.1033 75.9723 22.0951C75.412 22.6336 74.7336 22.8602 73.4358 22.8602H73.0229L72.0202 28.8679H75.235C79.1282 28.8679 80.8388 27.8194 82.284 26.1475C83.7882 24.2205 84.7321 21.6134 86.1477 13.1969H95.2613L92.6659 28.8679ZM112.109 28.8679H120.309L122.845 13.5369H131.958L132.931 7.7843H106.446L105.502 13.5369H114.646L112.109 28.8679ZM134.977 7.7843L131.497 28.8679H155.328L156.183 23.597H140.404L140.905 20.7066H156.154L157.009 15.5773H141.761L142.174 12.9418H157.717L158.573 7.7843H134.977ZM165.82 28.8679L167.383 19.4313L176.467 28.8679H186.878L175.966 17.6743L189.916 7.7843H179.563L167.943 16.0591L169.3 7.7843H161.13L157.649 28.8679H165.82Z" fill="black"/>
</svg>
